<?xml version="1.0" standalone="no"?>
<!DOCTYPE svg PUBLIC "-//W3C//DTD SVG 20010904//EN"
 "http://www.w3.org/TR/2001/REC-SVG-20010904/DTD/svg10.dtd">
<svg version="1.0" xmlns="http://www.w3.org/2000/svg"
 width="200.000000pt" height="200.000000pt" viewBox="0 0 200.000000 200.000000"
 preserveAspectRatio="xMidYMid meet">
<metadata>
Created by potrace 1.14, written by Peter Selinger 2001-2017
</metadata>
<g transform="translate(0.000000,200.000000) scale(0.100000,-0.100000)"
fill="#000000" stroke="none">
<path d="M361 1268 c-47 -75 -51 -254 -6 -271 7 -3 21 0 31 8 15 11 22 10 40
-1 19 -13 24 -12 47 7 15 11 27 28 27 37 1 9 7 3 14 -14 16 -36 40 -49 59 -30
11 11 16 11 32 0 14 -10 22 -11 32 -3 9 9 17 8 28 -1 8 -6 20 -8 27 -4 7 4 1
-6 -14 -22 -34 -37 -48 -73 -37 -101 6 -16 13 -21 26 -16 28 10 41 33 53 91
13 57 39 83 60 57 9 -11 17 -12 32 -4 14 7 23 7 33 -1 12 -10 16 -4 26 34 15
61 31 69 27 14 -3 -43 -3 -43 32 -44 90 -3 85 -2 63 -21 -27 -24 -51 -73 -47
-97 3 -22 22 -36 39 -29 14 5 40 62 50 107 3 16 20 42 36 57 34 32 31 62 -3
32 -21 -18 -21 -18 -15 29 6 46 6 47 -25 54 -35 7 -53 -10 -73 -70 -5 -17 -14
-29 -20 -27 -5 1 -9 7 -7 12 13 49 12 80 -4 86 -11 4 -23 -1 -36 -16 -18 -23
-18 -23 -18 -2 0 12 -6 21 -14 21 -14 0 -26 -29 -26 -66 0 -12 -7 -28 -17 -35
-15 -13 -16 -9 -10 44 4 45 3 57 -9 57 -8 0 -16 -15 -20 -40 -4 -22 -13 -45
-22 -52 -13 -11 -14 -7 -9 32 5 41 3 46 -19 57 -20 9 -27 7 -49 -13 -22 -20
-30 -40 -27 -66 1 -3 -5 -11 -12 -18 -26 -21 -27 8 -1 84 29 88 33 154 9 163
-24 9 -42 -20 -55 -88 -8 -42 -17 -60 -30 -64 -11 -4 -24 -15 -29 -26 -14 -26
-25 -24 -38 6 -24 52 -92 17 -92 -46 0 -15 -7 -29 -16 -33 -31 -12 -34 6 -9
54 34 68 50 145 36 176 -13 30 -32 31 -50 2z m19 -95 c-6 -29 -15 -55 -19 -58
-11 -6 -3 70 12 115 16 52 22 9 7 -57z m256 37 c-3 -28 -10 -58 -16 -68 -7
-13 -9 -4 -4 33 3 28 8 58 10 68 10 33 15 17 10 -33z m-178 -112 c6 -51 6 -61
-5 -65 -18 -6 -28 44 -13 62 15 18 16 18 18 3z m118 -54 c-3 -8 -10 -14 -16
-14 -14 0 -13 53 3 69 10 10 13 7 15 -14 2 -15 1 -33 -2 -41z m130 10 c-9 -33
-26 -30 -26 4 0 33 23 63 28 37 2 -9 1 -27 -2 -41z m310 0 c-9 -33 -26 -30
-26 4 0 33 23 63 28 37 2 -9 1 -27 -2 -41z m-329 -129 c-6 -19 -14 -35 -19
-35 -11 0 -1 39 14 58 16 19 17 15 5 -23z m307 -9 c-6 -25 -24 -37 -24 -15 0
15 21 52 26 46 3 -3 2 -16 -2 -31z"/>
<path d="M1346 1268 c-19 -29 -36 -108 -39 -171 -1 -35 -6 -51 -19 -58 -28
-15 -32 10 -17 106 13 93 7 115 -35 115 -24 0 -65 -37 -67 -61 -1 -8 -4 2 -8
21 -4 23 -12 36 -24 38 -24 5 -67 -35 -67 -61 0 -20 1 -20 23 1 40 38 40 37
22 -129 -6 -55 -4 -67 9 -72 12 -5 17 3 21 31 18 120 50 192 83 192 11 0 13
-11 8 -55 -3 -31 -9 -67 -12 -80 -15 -62 22 -105 69 -80 16 8 29 10 32 4 14
-21 55 -9 75 23 l19 31 6 -25 c8 -33 41 -48 78 -36 18 7 32 7 41 -1 9 -8 18
-7 32 3 16 13 21 12 35 0 15 -13 20 -12 45 9 19 16 25 29 21 41 -7 16 -9 16
-26 -5 -18 -22 -20 -22 -26 -6 -4 10 2 40 13 70 26 65 36 119 28 152 -14 57
-58 11 -71 -76 -5 -32 -13 -48 -28 -54 -12 -6 -28 -28 -36 -50 -17 -45 -27
-55 -56 -55 -18 0 -16 3 8 23 22 17 28 29 25 52 -2 24 -8 31 -30 33 -22 3 -30
-2 -40 -22 -14 -32 -22 -33 -36 -1 -6 14 -16 25 -22 25 -6 0 -5 12 4 29 17 32
24 91 12 109 -11 19 -34 14 -50 -10z m31 -35 c-9 -50 -19 -83 -27 -83 -8 0 5
84 15 101 11 17 16 9 12 -18z m269 -15 c-3 -18 -10 -46 -16 -63 -8 -25 -9 -21
-4 24 3 30 7 58 10 63 11 17 15 7 10 -24z m-271 -179 c-18 -28 -41 15 -29 54
7 21 8 20 21 -11 7 -18 11 -37 8 -43z m103 54 c-2 -9 -8 -18 -15 -20 -7 -3 -9
3 -6 16 6 25 26 28 21 4z m108 -49 c-3 -8 -10 -14 -16 -14 -14 0 -13 53 3 69
10 10 13 7 15 -14 2 -15 1 -33 -2 -41z"/>
<path d="M783 1194 c-3 -8 -1 -20 5 -26 15 -15 43 8 35 28 -7 19 -32 18 -40
-2z"/>
<path d="M197 1064 c-15 -15 -6 -54 14 -65 18 -9 25 -7 43 10 16 17 18 25 10
39 -11 18 -55 28 -67 16z"/>
<path d="M1741 1048 c-13 -34 18 -65 48 -48 33 17 25 64 -12 68 -21 3 -29 -2
-36 -20z"/>
</g>
</svg>
