<svg aria-hidden="true" style="position: absolute; width: 0; height: 0; overflow: hidden;" version="1.1" xmlns="http://www.w3.org/2000/svg" xmlns:xlink="http://www.w3.org/1999/xlink">
<defs>
<symbol id="icon-portfolio" viewBox="0 0 16 16">
<path d="M15 3h-4v-2c0-0.553-0.448-1-1-1h-4c-0.552 0-1 0.447-1 1v2h-4c-0.552 0-1 0.447-1 1v11c0 0.553 0.448 1 1 1h14c0.552 0 1-0.447 1-1v-11c0-0.553-0.448-1-1-1zM7 2h2v1h-2v-1zM14 14h-12v-4h4v1h4v-1h4v4zM14 9h-4v-1h-4v1h-4v-4h12v4z"></path>
</symbol>
<symbol id="icon-location" viewBox="0 0 16 16">
<path d="M8 0c-2.761 0-5 2.239-5 5 0 5 5 11 5 11s5-6 5-11c0-2.761-2.239-5-5-5zM8 8c-1.657 0-3-1.343-3-3s1.343-3 3-3 3 1.343 3 3-1.343 3-3 3z"></path>
</symbol>
<symbol id="icon-location2" viewBox="0 0 16 16">
<path d="M8 0c-2.761 0-5 2.239-5 5 0 5 5 11 5 11s5-6 5-11c0-2.761-2.239-5-5-5zM8 8.063c-1.691 0-3.063-1.371-3.063-3.063s1.371-3.063 3.063-3.063 3.063 1.371 3.063 3.063-1.371 3.063-3.063 3.063zM6.063 5c0-1.070 0.867-1.938 1.938-1.938s1.938 0.867 1.938 1.938c0 1.070-0.867 1.938-1.938 1.938s-1.938-0.867-1.938-1.938z"></path>
</symbol>
<symbol id="icon-calendar" viewBox="0 0 16 16">
<path d="M5 6h2v2h-2zM8 6h2v2h-2zM11 6h2v2h-2zM2 12h2v2h-2zM5 12h2v2h-2zM8 12h2v2h-2zM5 9h2v2h-2zM8 9h2v2h-2zM11 9h2v2h-2zM2 9h2v2h-2zM13 0v1h-2v-1h-7v1h-2v-1h-2v16h15v-16h-2zM14 15h-13v-11h13v11z"></path>
</symbol>
<symbol id="icon-search" viewBox="0 0 16 16">
<path d="M15.504 13.616l-3.79-3.223c-0.392-0.353-0.811-0.514-1.149-0.499 0.895-1.048 1.435-2.407 1.435-3.893 0-3.314-2.686-6-6-6s-6 2.686-6 6 2.686 6 6 6c1.486 0 2.845-0.54 3.893-1.435-0.016 0.338 0.146 0.757 0.499 1.149l3.223 3.79c0.552 0.613 1.453 0.665 2.003 0.115s0.498-1.452-0.115-2.003zM6 10c-2.209 0-4-1.791-4-4s1.791-4 4-4 4 1.791 4 4-1.791 4-4 4z"></path>
</symbol>
<symbol id="icon-earth" viewBox="0 0 16 16">
<path d="M8 0c-4.418 0-8 3.582-8 8s3.582 8 8 8 8-3.582 8-8-3.582-8-8-8zM8 15c-0.984 0-1.92-0.203-2.769-0.57l3.643-4.098c0.081-0.092 0.126-0.21 0.126-0.332v-1.5c0-0.276-0.224-0.5-0.5-0.5-1.765 0-3.628-1.835-3.646-1.854-0.094-0.094-0.221-0.146-0.354-0.146h-2c-0.276 0-0.5 0.224-0.5 0.5v3c0 0.189 0.107 0.363 0.276 0.447l1.724 0.862v2.936c-1.813-1.265-3-3.366-3-5.745 0-1.074 0.242-2.091 0.674-3h1.826c0.133 0 0.26-0.053 0.354-0.146l2-2c0.094-0.094 0.146-0.221 0.146-0.354v-1.21c0.634-0.189 1.305-0.29 2-0.29 1.1 0 2.141 0.254 3.067 0.706-0.065 0.055-0.128 0.112-0.188 0.172-0.567 0.567-0.879 1.32-0.879 2.121s0.312 1.555 0.879 2.121c0.569 0.569 1.332 0.879 2.119 0.879 0.049 0 0.099-0.001 0.149-0.004 0.216 0.809 0.605 2.917-0.131 5.818-0.007 0.027-0.011 0.055-0.013 0.082-1.271 1.298-3.042 2.104-5.002 2.104z"></path>
</symbol>
<symbol id="icon-star-empty" viewBox="0 0 16 16">
<path d="M16 6.204l-5.528-0.803-2.472-5.009-2.472 5.009-5.528 0.803 4 3.899-0.944 5.505 4.944-2.599 4.944 2.599-0.944-5.505 4-3.899zM8 11.773l-3.492 1.836 0.667-3.888-2.825-2.753 3.904-0.567 1.746-3.537 1.746 3.537 3.904 0.567-2.825 2.753 0.667 3.888-3.492-1.836z"></path>
</symbol>
<symbol id="icon-star-half" viewBox="0 0 16 16">
<path d="M16 6.204l-5.528-0.803-2.472-5.009-2.472 5.009-5.528 0.803 4 3.899-0.944 5.505 4.944-2.599 4.944 2.599-0.944-5.505 4-3.899zM8 11.773l-0.015 0.008 0.015-8.918 1.746 3.537 3.904 0.567-2.825 2.753 0.667 3.888-3.492-1.836z"></path>
</symbol>
<symbol id="icon-star-full" viewBox="0 0 16 16">
<path d="M16 6.204l-5.528-0.803-2.472-5.009-2.472 5.009-5.528 0.803 4 3.899-0.944 5.505 4.944-2.599 4.944 2.599-0.944-5.505 4-3.899z"></path>
</symbol>
<symbol id="icon-heart" viewBox="0 0 16 16">
<path d="M11.8 1c-1.682 0-3.129 1.368-3.799 2.797-0.671-1.429-2.118-2.797-3.8-2.797-2.318 0-4.2 1.882-4.2 4.2 0 4.716 4.758 5.953 8 10.616 3.065-4.634 8-6.050 8-10.616 0-2.319-1.882-4.2-4.2-4.2z"></path>
</symbol>
<symbol id="icon-group-outline" viewBox="0 0 24 24">
<path d="M12 14c2.764 0 5-2.238 5-5s-2.236-5-5-5-5 2.238-5 5 2.236 5 5 5zM12 6c1.654 0 3 1.346 3 3s-1.346 3-3 3-3-1.346-3-3 1.346-3 3-3z"></path>
<path d="M20 15c1.381 0 2.5-1.117 2.5-2.5 0-1.381-1.119-2.5-2.5-2.5s-2.5 1.119-2.5 2.5c0 1.383 1.118 2.5 2.5 2.5zM20 11c0.827 0 1.5 0.673 1.5 1.5s-0.673 1.5-1.5 1.5-1.5-0.673-1.5-1.5 0.673-1.5 1.5-1.5z"></path>
<path d="M20 15.59c-1.331 0-2.332 0.406-2.917 0.969-1.115-0.918-2.878-1.559-5.083-1.559-2.266 0-3.995 0.648-5.092 1.564-0.596-0.565-1.608-0.975-2.908-0.975-2.188 0-3.5 1.091-3.5 2.183 0 0.545 1.312 1.092 3.5 1.092 0.604 0 1.146-0.051 1.623-0.133-0.010 0.090-0.040 0.18-0.040 0.27 0 1 2.405 2 6.417 2 3.762 0 6.417-1 6.417-2 0-0.085-0.011-0.17-0.021-0.255 0.463 0.073 0.996 0.118 1.604 0.118 2.051 0 3.5-0.547 3.5-1.092 0-1.092-1.373-2.182-3.5-2.182zM4 17.863c-1.309 0-2.068-0.207-2.417-0.354 0.239-0.405 1.003-0.92 2.417-0.92 1.107 0 1.837 0.351 2.208 0.706-0.084 0.114-0.169 0.227-0.235 0.344-0.452 0.119-1.108 0.224-1.973 0.224zM12 19c-2.163 0-3.501-0.312-4.184-0.561 0.521-0.678 1.918-1.439 4.184-1.439 2.169 0 3.59 0.761 4.148 1.425-0.755 0.27-2.162 0.575-4.148 0.575zM20 17.863c-0.914 0-1.546-0.103-1.973-0.213-0.072-0.127-0.155-0.252-0.248-0.375 0.356-0.345 1.071-0.685 2.221-0.685 1.324 0 2.141 0.501 2.404 0.911-0.39 0.163-1.205 0.362-2.404 0.362z"></path>
<path d="M4 15c1.381 0 2.5-1.119 2.5-2.5 0-1.379-1.119-2.5-2.5-2.5s-2.5 1.121-2.5 2.5c0 1.381 1.118 2.5 2.5 2.5zM4 11c0.827 0 1.5 0.673 1.5 1.5s-0.673 1.5-1.5 1.5-1.5-0.673-1.5-1.5 0.673-1.5 1.5-1.5z"></path>
</symbol>
<symbol id="icon-thumbs-up" viewBox="0 0 24 24">
<path d="M19.57 8.676c-0.391-0.144-2.512-0.406-3.883-0.56 0.215-1.255 0.313-2.405 0.313-3.616 0-1.379-1.122-2.5-2.5-2.5s-2.5 1.121-2.5 2.5c0 1.875-0.666 2.738-1.616 3.699-0.548-0.722-1.407-1.199-2.384-1.199-1.654 0-3 1.346-3 3v6c0 1.654 1.346 3 3 3 0.755 0 1.438-0.29 1.965-0.752 0.064 0.062 0.117 0.141 0.188 0.193 0.96 0.736 3.667 1.559 5.848 1.559 1.879 0 2.608-0.293 3.253-0.553 0.104-0.041 0.207-0.084 0.316-0.123 0.834-0.305 1.576-1.227 1.736-2.2l0.666-5.974c0.173-1.037-0.443-2.125-1.402-2.474zM7 17c-0.551 0-1-0.448-1-1v-6c0-0.552 0.449-1 1-1s1 0.448 1 1v6c0 0.552-0.449 1-1 1zM18.327 16.85c-0.037 0.224-0.292 0.541-0.443 0.596-0.131 0.049-0.254 0.099-0.376 0.146-0.545 0.219-1.016 0.408-2.508 0.408-1.914 0-4.118-0.753-4.632-1.146-0.158-0.12-0.368-0.564-0.368-0.854v-4.98c0.003-0.047 0.051-0.656 0.707-1.312 0.913-0.914 2.293-2.294 2.293-5.208 0-0.275 0.225-0.5 0.5-0.5s0.5 0.225 0.5 0.5c0 1.407-0.146 2.73-0.479 4.293l-0.297 1.396 1.321-0.188c0.603 0.050 3.933 0.447 4.334 0.55 0.058 0.030 0.132 0.183 0.111 0.323l-0.663 5.976z"></path>
</symbol>
<symbol id="icon-child_care" viewBox="0 0 24 24">
<path d="M7.5 14.016h9q-0.563 1.359-1.781 2.18t-2.719 0.82-2.719-0.82-1.781-2.18zM12 18.984q2.391 0 4.242-1.406t2.461-3.609q0.047 0 0.141 0.023t0.141 0.023q0.797 0 1.406-0.609t0.609-1.406-0.609-1.406-1.406-0.609q-0.047 0-0.141 0.023t-0.141 0.023q-0.609-2.203-2.461-3.609t-4.242-1.406-4.242 1.406-2.461 3.609q-0.047 0-0.141-0.023t-0.141-0.023q-0.797 0-1.406 0.609t-0.609 1.406 0.609 1.406 1.406 0.609q0.047 0 0.141-0.023t0.141-0.023q0.609 2.203 2.461 3.609t4.242 1.406zM22.922 12.656q-0.188 1.031-0.984 1.969t-1.781 1.219q-1.031 2.203-3.258 3.68t-4.898 1.477q-3.328 0-5.953-2.297-1.453-1.266-2.156-2.859-0.984-0.281-1.805-1.219t-1.008-1.969q-0.094-0.375-0.094-0.656t0.094-0.656q0.188-1.031 1.008-1.969t1.805-1.219q0.797-1.781 2.156-2.906 2.531-2.25 5.953-2.25t5.953 2.25q1.453 1.359 2.156 2.906 0.984 0.281 1.805 1.219t1.008 1.969q0.094 0.375 0.094 0.656t-0.094 0.656zM8.25 10.5q0-0.516 0.375-0.891t0.891-0.375 0.867 0.375 0.352 0.891-0.352 0.891-0.867 0.375-0.891-0.375-0.375-0.891zM13.266 10.5q0-0.516 0.352-0.891t0.867-0.375 0.891 0.375 0.375 0.891-0.375 0.891-0.891 0.375-0.867-0.375-0.352-0.891z"></path>
</symbol>
<symbol id="icon-single_bed" viewBox="0 0 24 24">
<path d="M6 12v3h12v-3h-12zM8.016 6.984v3h3v-3h-3zM15.984 9.984v-3h-3v3h3zM20.016 12v5.016h-1.359l-0.656 1.969h-0.984l-0.656-1.969h-8.672l-0.703 1.969h-0.984l-0.656-1.969h-1.359v-5.016q0-0.797 0.609-1.406t1.406-0.609v-3q0-0.797 0.609-1.383t1.406-0.586h7.969q0.797 0 1.406 0.586t0.609 1.383v3q0.797 0 1.406 0.609t0.609 1.406z"></path>
</symbol>
<symbol id="icon-users" viewBox="0 0 24 24">
<path d="M18 21v-2c0-1.38-0.561-2.632-1.464-3.536s-2.156-1.464-3.536-1.464h-8c-1.38 0-2.632 0.561-3.536 1.464s-1.464 2.156-1.464 3.536v2c0 0.552 0.448 1 1 1s1-0.448 1-1v-2c0-0.829 0.335-1.577 0.879-2.121s1.292-0.879 2.121-0.879h8c0.829 0 1.577 0.335 2.121 0.879s0.879 1.292 0.879 2.121v2c0 0.552 0.448 1 1 1s1-0.448 1-1zM14 7c0-1.38-0.561-2.632-1.464-3.536s-2.156-1.464-3.536-1.464-2.632 0.561-3.536 1.464-1.464 2.156-1.464 3.536 0.561 2.632 1.464 3.536 2.156 1.464 3.536 1.464 2.632-0.561 3.536-1.464 1.464-2.156 1.464-3.536zM12 7c0 0.829-0.335 1.577-0.879 2.121s-1.292 0.879-2.121 0.879-1.577-0.335-2.121-0.879-0.879-1.292-0.879-2.121 0.335-1.577 0.879-2.121 1.292-0.879 2.121-0.879 1.577 0.335 2.121 0.879 0.879 1.292 0.879 2.121zM24 21v-2c-0.001-1.245-0.457-2.385-1.215-3.261-0.652-0.753-1.528-1.311-2.529-1.576-0.534-0.141-1.081 0.177-1.222 0.711s0.177 1.081 0.711 1.222c0.607 0.161 1.136 0.498 1.528 0.952 0.454 0.526 0.726 1.206 0.727 1.952v2c0 0.552 0.448 1 1 1s1-0.448 1-1zM15.752 4.099c0.803 0.206 1.445 0.715 1.837 1.377s0.531 1.47 0.325 2.273c-0.176 0.688-0.575 1.256-1.105 1.652-0.314 0.235-0.675 0.409-1.063 0.511-0.534 0.14-0.854 0.687-0.713 1.221s0.687 0.854 1.221 0.713c0.637-0.167 1.232-0.455 1.752-0.844 0.884-0.66 1.552-1.613 1.845-2.758 0.342-1.337 0.11-2.689-0.542-3.788s-1.725-1.953-3.062-2.296c-0.535-0.137-1.080 0.186-1.217 0.721s0.186 1.080 0.721 1.217z"></path>
</symbol>
<symbol id="icon-user" viewBox="0 0 24 24">
<path d="M21 21v-2c0-1.38-0.561-2.632-1.464-3.536s-2.156-1.464-3.536-1.464h-8c-1.38 0-2.632 0.561-3.536 1.464s-1.464 2.156-1.464 3.536v2c0 0.552 0.448 1 1 1s1-0.448 1-1v-2c0-0.829 0.335-1.577 0.879-2.121s1.292-0.879 2.121-0.879h8c0.829 0 1.577 0.335 2.121 0.879s0.879 1.292 0.879 2.121v2c0 0.552 0.448 1 1 1s1-0.448 1-1zM17 7c0-1.38-0.561-2.632-1.464-3.536s-2.156-1.464-3.536-1.464-2.632 0.561-3.536 1.464-1.464 2.156-1.464 3.536 0.561 2.632 1.464 3.536 2.156 1.464 3.536 1.464 2.632-0.561 3.536-1.464 1.464-2.156 1.464-3.536zM15 7c0 0.829-0.335 1.577-0.879 2.121s-1.292 0.879-2.121 0.879-1.577-0.335-2.121-0.879-0.879-1.292-0.879-2.121 0.335-1.577 0.879-2.121 1.292-0.879 2.121-0.879 1.577 0.335 2.121 0.879 0.879 1.292 0.879 2.121z"></path>
</symbol>
<symbol id="icon-check-circle" viewBox="0 0 24 24">
<path d="M21 11.080v0.92c-0.001 2.485-1.009 4.733-2.64 6.362s-3.88 2.634-6.365 2.632-4.734-1.009-6.362-2.64-2.634-3.879-2.633-6.365 1.009-4.733 2.64-6.362 3.88-2.634 6.365-2.633c1.33 0.001 2.586 0.289 3.649 0.775 0.502 0.23 1.096 0.008 1.325-0.494s0.008-1.096-0.494-1.325c-1.327-0.606-2.866-0.955-4.479-0.956-3.037-0.002-5.789 1.229-7.78 3.217s-3.224 4.74-3.226 7.777 1.229 5.789 3.217 7.78 4.739 3.225 7.776 3.226 5.789-1.229 7.78-3.217 3.225-4.739 3.227-7.777v-0.92c0-0.552-0.448-1-1-1s-1 0.448-1 1zM21.293 3.293l-9.293 9.302-2.293-2.292c-0.391-0.391-1.024-0.391-1.414 0s-0.391 1.024 0 1.414l3 3c0.391 0.391 1.024 0.39 1.415 0l10-10.010c0.39-0.391 0.39-1.024-0.001-1.414s-1.024-0.39-1.414 0.001z"></path>
</symbol>
<symbol id="icon-money" viewBox="0 0 30 28">
<path d="M12 18h6v-1.5h-2v-7h-1.781l-2.312 2.141 1.203 1.25c0.375-0.328 0.609-0.5 0.859-0.891h0.031v4.5h-2v1.5zM20 14c0 2.844-1.719 6.5-5 6.5s-5-3.656-5-6.5 1.719-6.5 5-6.5 5 3.656 5 6.5zM28 18v-8c-2.203 0-4-1.797-4-4h-18c0 2.203-1.797 4-4 4v8c2.203 0 4 1.797 4 4h18c0-2.203 1.797-4 4-4zM30 5v18c0 0.547-0.453 1-1 1h-28c-0.547 0-1-0.453-1-1v-18c0-0.547 0.453-1 1-1h28c0.547 0 1 0.453 1 1z"></path>
</symbol>
<symbol id="icon-chevron-right" viewBox="0 0 19 28">
<path d="M17.297 13.703l-11.594 11.594c-0.391 0.391-1.016 0.391-1.406 0l-2.594-2.594c-0.391-0.391-0.391-1.016 0-1.406l8.297-8.297-8.297-8.297c-0.391-0.391-0.391-1.016 0-1.406l2.594-2.594c0.391-0.391 1.016-0.391 1.406 0l11.594 11.594c0.391 0.391 0.391 1.016 0 1.406z"></path>
</symbol>
<symbol id="icon-chevron-left" viewBox="0 0 21 28">
<path d="M18.297 4.703l-8.297 8.297 8.297 8.297c0.391 0.391 0.391 1.016 0 1.406l-2.594 2.594c-0.391 0.391-1.016 0.391-1.406 0l-11.594-11.594c-0.391-0.391-0.391-1.016 0-1.406l11.594-11.594c0.391-0.391 1.016-0.391 1.406 0l2.594 2.594c0.391 0.391 0.391 1.016 0 1.406z"></path>
</symbol>
<symbol id="icon-chevron-down" viewBox="0 0 28 28">
<path d="M26.297 12.625l-11.594 11.578c-0.391 0.391-1.016 0.391-1.406 0l-11.594-11.578c-0.391-0.391-0.391-1.031 0-1.422l2.594-2.578c0.391-0.391 1.016-0.391 1.406 0l8.297 8.297 8.297-8.297c0.391-0.391 1.016-0.391 1.406 0l2.594 2.578c0.391 0.391 0.391 1.031 0 1.422z"></path>
</symbol>
<symbol id="icon-chevron-up" viewBox="0 0 28 28">
<path d="M26.297 20.797l-2.594 2.578c-0.391 0.391-1.016 0.391-1.406 0l-8.297-8.297-8.297 8.297c-0.391 0.391-1.016 0.391-1.406 0l-2.594-2.578c-0.391-0.391-0.391-1.031 0-1.422l11.594-11.578c0.391-0.391 1.016-0.391 1.406 0l11.594 11.578c0.391 0.391 0.391 1.031 0 1.422z"></path>
</symbol>
<symbol id="icon-checkmark" viewBox="0 0 32 32">
<path d="M28.998 8.531l-2.134-2.134c-0.394-0.393-1.030-0.393-1.423 0l-12.795 12.795-6.086-6.13c-0.393-0.393-1.029-0.393-1.423 0l-2.134 2.134c-0.393 0.394-0.393 1.030 0 1.423l8.924 8.984c0.393 0.393 1.030 0.393 1.423 0l15.648-15.649c0.393-0.392 0.393-1.030 0-1.423z"></path>
</symbol>
</defs>
</svg>
